<?xml version="1.0" encoding="utf-8"?>
<!-- Generator: Adobe Illustrator 24.0.0, SVG Export Plug-In . SVG Version: 6.00 Build 0)  -->
<svg version="1.1" id="Layer_1" xmlns="http://www.w3.org/2000/svg" xmlns:xlink="http://www.w3.org/1999/xlink" x="0px" y="0px"
	 viewBox="0 0 288 560" style="enable-background:new 0 0 288 560;" xml:space="preserve">
<style type="text/css">
	.st0{fill:#FFFFFF;}
	.st1{fill:#B4B5B5;}
	.st2{fill:#595857;}
	.st3{fill:#000101;}
	.st4{fill:#101111;}
</style>
<g>
	<g>
		<path class="st0" d="M244.45,305.98c1.21-2.05,0.7-3.68-0.92-8.83c-0.86-2.72-0.94-6.1-1-8.95c-0.11-4.85-2.18-9.53-2.03-14.37
			c0.1-3.1,1.11-6.15,0.88-9.23c-0.21-2.78-1.4-5.37-2.37-7.99c-5.86-15.68-3.87-28.9-2.4-44.75c0.75,12.73,2.3,22.2,4.49,32.17
			c0.49,2.25-0.21,4-0.15,6.23c0.12,4.06,1.69,5.28,4.37,7.04c1.23-2.89,1.53-4.97,0.49-8.27c-0.35-1.1-1.1-3.13-1.49-4.21
			c-0.86-2.39-1.41-4.07-1.99-6.3c-1.92-7.3-1.55-15.63-1.61-23.09c-0.06-8.79-1.82-17.84-6.82-25.06
			c-5.01-7.23-13.71-12.28-22.44-11.24c-4.56,0.54-8.77,2.63-13.22,3.78c-17.12,4.42-29.73-5.46-47.14-2.42
			c-4.55,0.79-8.93,2.46-13.51,2.99c-8.79,1.01-17.8-2.22-26.46-0.41c-4.63,0.97-11.33,2.29-15.32,1.69
			c-2.29-2.14-6.71-3.02-9.72-2.07c-0.45,0.14-0.91,0.32-1.38,0.29c-0.36-0.03-0.7-0.18-1.01-0.36c-1.36-0.75-2.5-1.9-3.23-3.27
			c-0.61-1.15-1.06-2.58-2.27-3.08c-0.39-0.16-0.84-0.22-1.13-0.51c-0.42-0.41-0.35-1.12-0.69-1.6c-0.23-0.32-0.6-0.5-0.96-0.67
			c-1.55-0.71-3.65-1.31-4.74,0c-1.25-0.36-2.57-0.46-3.85-0.29c0.12,0.4,0.24,0.79,0.36,1.19c-0.57,0.07-1.13,0.14-1.7,0.21
			l0.35,0.34c-1.38-0.35-2.82,0.52-3.66,1.67c-0.85,1.15-1.28,2.54-1.91,3.81c-0.9,1.81-2.22,3.41-3.83,4.63
			c-1.41-0.45-2.59-1.43-3.92-2.09c-3.27-1.63-7.48-1.13-10.28,1.22c-0.33,0.28-0.66,0.63-0.65,1.06c0.01,0.37,0.29,0.68,0.55,0.95
			c1.98,2.03,4.17,3.94,6.8,4.99c2.63,1.06,5.77,1.15,8.18-0.33c-0.5,3.87,1.57,7.55,2.4,11.36c0.65,2.98,0.53,6.07,0.4,9.12
			c-0.03,0.8-0.09,1.67-0.61,2.29c-0.3,0.36-0.73,0.59-0.99,0.98c-0.26,0.37-0.33,0.84-0.4,1.3c-0.32,2.22-0.56,4.72,0.81,6.5
			c0.98,1.26,2.6,1.87,4.18,2.07c1.43,0.18,2.9,0.07,4.29-0.32c1.82-0.51,3.43-0.9,4.96-1.99c0.74-0.53,1.57-1.14,2.33-1.83
			c0.98,0.33,1.96,1.83,2.24,2.39c0.28,0.56,1.33,3,2.1,4.4c2.23,4.06,3.45,5.67,5.01,10.33c2.64,7.92,5.65,16.3,10.98,22.48
			c1.78,2.06,2.49,2.96,3.81,3.87c0.66,4.15,1.71,7.65,1.77,10.76c0.08,4.45,0.62,8.89,1.39,13.18c0.97,5.38,1.89,13.14,0,18.55
			c-1.05,3.01-1.85,4.27-3.64,6.1c-0.52,0.54-1.08,1.23-1.38,2.19c-0.14,0.45-0.26,0.97-0.02,1.34c0.3,0.49,1.14,0.63,1.72,0.7
			c3.09,0.37,6.2,0.26,9.52,0.05c0.65-0.04,1.37-0.11,1.86-0.59c0.52-0.5,0.95-1.46,1.01-2.14c0.09-1.02-0.19-2.24-0.16-3.79
			c0.02-1.15-0.21-2.82,0.06-4.33c0.27-1.44-0.73-3.04-1.01-4.63c-1.02-5.87,0.48-13.91,0.42-19.1c0.57,1.8,5.05,24.55,5.12,25.53
			s0.21,1.68-0.42,2.31s-1.54,1.68-2.1,2.79c-0.56,1.12-1.9,3.82-1.96,5.24c-0.06,1.42,0.28,1.4,1.78,1.52
			c3.15,0.27,7.06,0.18,10.2-0.15c0.62-0.07,1.29-0.17,1.62-0.67c0.35-0.53,0.07-2.18-0.09-2.89c-0.76-3.24-1.88-5.54-0.97-8.37
			c0.51-1.59-0.89-4.53-1.39-6.11c-0.73-2.32-0.81-3.68-0.98-6.04c-0.12-1.7-0.28-3.52-0.09-5.2c0.22-2.08-0.13-4.27-0.28-6.43
			c-0.4-5.64-0.11-11.05,0.84-16.38c0.15-0.87,0.31-1.74,0.68-2.5c0.7-0.96,1.7-1.66,2.71-2.28c3.86-2.36,8.21-2.95,12.73-2.99
			c9.74-0.09,24.13,2.95,36.39,2.79c12.25-0.16,16.86-2.45,26.94-9.41c2.21-1.52,4.51-3.15,7.17-3.43c2.17-0.23,4.31,0.3,6.28,1.33
			c2.6,6.7,3.19,11.46,4.49,15.66c1.3,4.21,2.32,7.22,3.02,11.59c1.1,6.89,0.42,14.11-0.36,21.23c-0.32,2.89,0.21,4.48-0.9,7.24
			c-0.65,1.62-3.29,3.23-4.97,4.84c-1.2,1.14-1.64,2.38-1.72,3.18c-0.2,1.92,7.76,1.71,12.69,1.48c1.26-0.06,2.97-0.14,3-0.97
			c0.05-1.44,0.26-3.47-0.14-4.75c-0.75-2.42-0.39-5.28,1.42-7.2c0.61-0.65-0.26-3.54-0.17-5.93c0.22-5.67,0.67-9.89,1.2-15.16
			c0.89,3.41,2.31,7.3,2.73,11.14c0.5,4.57,2.55,13.14,1.33,16.82c-0.68,2.07-3.78,3.63-4.54,5.18c-0.7,1.42-0.69,2.61-0.67,3.04
			c0.1,1.87,5.59,1.7,8.52,1.61c2.69-0.09,4.19-0.34,5.47-1.21c1.43-0.98,1.43-3.96,0.03-7.13
			C244.26,310.3,243.65,307.33,244.45,305.98z"/>
		<path d="M197.93,205.46c-1.64,2.44-2.45,5.55-4.24,7.84c-1.1,1.41-2.53,2.44-3.58,3.89c-1.05,1.45-1.68,3.6-0.85,5.28
			c0.53,1.07,1.53,1.71,2.54,2.09c4.54,1.72,9.71-0.78,14.13,1.34c1.64,0.78,3.11,2.18,4.86,2.37c2.62,0.29,4.81-2.22,6.02-4.88
			c1.21-2.66,1.88-5.7,3.54-8.01c2.52-3.51,6.7-5.67,6.13-11.1c-0.41-3.83-0.45-7.15-6.47-5.41
			C214.04,200.61,202.25,199.03,197.93,205.46z"/>
		<path d="M170.39,222.44c-1.65-0.56-3.39-0.22-5.08-0.45c-2.29-0.31-4.42-1.66-6.65-2.42c-2.23-0.75-4.82-0.8-6.59,1.17
			c-1.31,1.46-1.96,3.8-3.3,5.2c-1.38,1.44-3.67,2.44-3.42,4.76c0.16,1.51,1.47,2.59,1.35,4.1c-0.18,2.19-2.71,1.92-4.01,3.27
			c-1.37,1.41-0.99,4.52,0.29,6.06c1.28,1.54,3.1,1.94,4.81,2.25c6.33,1.14,13.05,1.91,18.86-1.64c1.36-0.83,2.74-1.92,4.24-1.82
			c1.25,0.09,2.38,1,3.6,1.34c2.86,0.8,5.99-2.09,6.45-5.95c0.11-0.92,0.08-1.89-0.2-2.74c-0.84-2.61-3.21-4.82-4.59-7.04
			C174.56,225.96,172.91,223.29,170.39,222.44z"/>
		<path d="M123.23,194.03c-0.57-0.99-1.16-2.01-2.04-2.74c-0.88-0.73-2.14-1.13-3.2-0.7c-2.15,0.86-1.94,3.9-2.6,6.12
			c-0.6,2.02-2.16,3.6-3.19,5.44c-1.03,1.84-1.42,4.42,0.12,5.86c0.91,0.84,2.23,1.05,3.26,1.75c2.02,1.36,2.37,4.16,2.39,6.6
			c0.01,2.44-0.02,5.15,1.62,6.95c2.27,2.5,6.66,1.67,8.98-0.78c2.32-2.45,3.11-5.94,3.81-9.24c0.26-1.25,0.53-2.54,0.28-3.79
			c-0.64-3.16-3.86-4.49-5.5-6.98C125.51,199.99,124.8,196.76,123.23,194.03z"/>
		<path d="M141.62,224.35c0.25,0.8,0.21,1.67,0.16,2.51c-0.11,1.8-0.22,3.6-0.32,5.39c-0.1,1.73-0.47,3.82-2.09,4.41
			c-1.67,0.61-3.34-0.87-4.43-2.28c-0.82-1.06-1.59-2.16-2.3-3.29c-1.2-1.91-2.27-4.12-1.82-6.33
			C131.86,219.73,140.09,219.51,141.62,224.35z"/>
		<path d="M104.92,225.96c-4.11,1.02-6.72,6.19-4.78,9.95c1.02,1.97,2.98,3.34,3.94,5.35c1.2,2.5,0.71,5.71,2.48,7.84
			c0.64,0.77,1.5,1.3,2.27,1.94c1.5,1.24,2.64,2.91,3.26,4.76c0.47,1.4,0.91,3.19,2.36,3.5c1.12,0.23,2.17-0.64,2.78-1.61
			c2.83-4.53-0.35-10.59,1.03-15.75c0.29-1.08,0.78-2.15,0.67-3.26c-0.23-2.45-3.6-6.18-4.94-8.35
			C112.11,227.26,108.62,225.05,104.92,225.96z"/>
		<path d="M63.33,195.24c-0.02-1.55-0.86-2.95-1.43-4.39c-1.64-4.16-1.09-8.83-0.28-13.22c0.02-0.09,0.04-0.19,0.05-0.28
			c-0.56,0.98-0.93,2.06-1.44,3.07c-0.9,1.81-2.22,3.41-3.83,4.63c-1.41-0.45-2.59-1.43-3.92-2.09c-3.27-1.63-7.48-1.13-10.28,1.22
			c-0.33,0.28-0.66,0.63-0.65,1.06c0.01,0.37,0.29,0.68,0.55,0.95c1.98,2.03,4.17,3.94,6.8,4.99c2.63,1.06,5.77,1.15,8.18-0.33
			c-0.5,3.87,1.57,7.55,2.4,11.36c0.65,2.98,0.53,6.07,0.4,9.12c-0.03,0.8-0.09,1.67-0.61,2.29c-0.04,0.05-0.09,0.09-0.13,0.14
			c0.53-0.24,1.05-0.48,1.44-0.9c0.38-0.4,0.59-0.93,0.75-1.45c1.26-4.01,0.09-8.45,1.16-12.52
			C62.83,197.67,63.35,196.48,63.33,195.24z"/>
		<path d="M182.57,208.4c2.74-2.42,5.67-5.19,6.09-8.82c0.09-0.77,0.06-1.56,0.34-2.28c0.5-1.27,1.8-1.98,2.88-2.8
			c1.08-0.83,2.08-2.17,1.61-3.44c-0.33-0.88-1.25-1.38-2.14-1.68c-3.96-1.32-8.24-0.05-12.35,0.68c-1.91,0.34-3.93,0.55-5.76-0.1
			c-1.83-0.65-3.41-2.39-3.27-4.33c0.1-1.48,1.12-2.7,1.83-4.02c-6.5-1.32-13.15-2.43-20.7-1.11c-4.55,0.79-8.93,2.46-13.51,2.99
			c-8.79,1.01-17.8-2.22-26.46-0.41c-1.07,0.22-2.3,0.46-3.6,0.7c2.08,1.31,4.3,2.31,6.73,2.5c1.99,0.15,4.06-0.25,5.96,0.35
			c2.82,0.89,4.65,3.76,7.44,4.75c1.71,0.61,3.94,0.64,4.77,2.25c1.17,2.25-1.75,4.73-1.42,7.23c0.23,1.71,1.86,2.81,3.23,3.86
			c1.37,1.05,2.75,2.67,2.21,4.31c-0.3,0.9-1.14,1.59-1.26,2.54c-0.2,1.63,1.72,2.6,3.3,3.07c2.26,0.68,4.64,1.36,6.95,0.89
			c4.96-1,7.98-6.89,13.02-7.41c5.27-0.54,9.49,5.09,14.78,5.15C176.83,213.3,179.88,210.78,182.57,208.4z"/>
		<path d="M244.31,244.82c-0.86-2.39-1.41-4.07-1.99-6.3c-1.92-7.3-1.55-15.63-1.61-23.09c-0.06-8.79-1.82-17.84-6.82-25.06
			c-5.01-7.23-13.71-12.28-22.44-11.24c-4.56,0.54-8.77,2.63-13.22,3.78c-0.91,0.23-1.8,0.42-2.68,0.58
			c1.55,1.36,2.49,0.65,3.88,2.43c1.38,1.77,3.77,1.88,5.54,0.31c1.78-1.57,3.44-2.85,6.45-1.99c2.85,0.82,2.41,4.09,3.9,5.92
			c1.08,1.32,2.09,1.73,4.5,3.73c0,0,2.38,1.21,4.44,1.82c3.53,1.05,6.27,2.43,7.2,5.99c0.32,1.23,0.7,2.46,0.72,3.73
			c0.04,2.76-1.62,5.21-2.92,7.64c-1.6,3-2.74,6.32-2.78,9.73c-0.04,3.41,1.11,6.91,3.55,9.29c1.51,1.48,3.46,2.49,5.07,3.84
			c-0.21-7.79,0.73-15.55,1.52-24.08c0.75,12.73,2.3,22.2,4.49,32.17c0.49,2.25-0.21,4-0.15,6.23c0.12,4.06,1.69,5.28,4.37,7.04
			c1.23-2.89,1.53-4.97,0.49-8.27C245.45,247.94,244.7,245.91,244.31,244.82z"/>
		<path class="st1" d="M59.68,192.52c0.25-0.14,0.61-0.03,0.75,0.22c0.06,0.11,0.08,0.23,0.1,0.34c0.13,0.75,0.26,1.5,0.39,2.25
			c0.01,0.06,0.02,0.13-0.01,0.19c-0.07,0.15-0.28,0.11-0.43,0.06c0.07-0.53,0.02-1.08-0.14-1.59c-0.13,0.21-0.26,0.43-0.38,0.64
			c-0.17-0.54-0.13-1.13,0.1-1.64c-0.14-0.25-0.37,0.31-0.56,0.17C59.29,193.01,59.51,192.62,59.68,192.52z"/>
		<path class="st2" d="M67.13,217.13c0.58-0.12,1.28,0.14,1.74-0.24c0.17,0.13,0.09,0.4-0.02,0.58c-0.38,0.62-1.52,1.66-2.35,1.41
			C65.5,218.59,66.46,217.27,67.13,217.13z"/>
		<path class="st2" d="M60.02,217.19c-0.31-0.27-0.76-0.38-1.02-0.7c-0.05-0.07-0.1-0.14-0.18-0.17c-0.15-0.06-0.3,0.09-0.32,0.25
			c-0.02,0.16,0.06,0.3,0.14,0.44c0.27,0.49,0.67,1.31,1.25,1.5C60.76,218.79,60.43,217.54,60.02,217.19z"/>
		<path d="M81.53,227.5c-0.87-1.08-1.74-2.17-2.61-3.25c-0.34-0.42-0.86-0.9-1.35-0.66c-0.13,0.06-0.23,0.16-0.33,0.27
			c0.45,0.99,1.06,2.34,1.56,3.24c1.4,2.55,2.4,4.13,3.34,6.11c0.33-1,0.56-2.01,0.55-2.85c-0.01-0.49-0.07-0.99-0.25-1.45
			C82.24,228.39,81.88,227.94,81.53,227.5z"/>
		<path class="st3" d="M116.05,316.6c-0.95-0.03-2.34-0.21-3.36-0.31c-0.39-0.04-0.94-0.14-1.43-0.2c-0.24,0.68-0.42,1.34-0.44,1.83
			c-0.06,1.42,0.28,1.4,1.78,1.52c3.15,0.27,7.06,0.18,10.2-0.15c0.62-0.07,1.29-0.17,1.62-0.67c0.35-0.53,0.07-2.18-0.09-2.89
			c-0.03-0.11-0.05-0.21-0.08-0.32C121.63,316.45,118.91,316.68,116.05,316.6z"/>
		<path d="M107.97,316.65c0.65-0.04,1.37-0.11,1.86-0.59c0.52-0.5,0.95-1.46,1.01-2.14c0.04-0.42,0.01-0.88-0.03-1.37
			c-3.93,0.94-8,1.3-12.04,1.05c-0.47-0.03-0.98-0.09-1.44-0.24c-0.23,0.35-0.44,0.75-0.58,1.21c-0.14,0.45-0.26,0.97-0.02,1.34
			c0.3,0.49,1.14,0.63,1.72,0.7C101.54,316.98,104.65,316.86,107.97,316.65z"/>
		<path d="M225.97,312.53c-1.36,0.29-2.74,0.56-4.14,0.59c-0.93,0.02-1.85-0.07-2.78-0.15c-0.81-0.08-1.62-0.15-2.43-0.23
			c-0.54-0.05-1.09-0.1-1.62-0.24c-0.07-0.02-0.18-0.07-0.3-0.12c-0.52,0.79-0.76,1.54-0.82,2.09c-0.2,1.92,7.76,1.71,12.69,1.48
			c1.26-0.06,2.97-0.14,3-0.97c0.04-1.03,0.15-2.35,0.07-3.49c-0.12,0.03-0.24,0.08-0.35,0.12
			C228.23,312.03,227.1,312.29,225.97,312.53z"/>
		<path class="st4" d="M239.28,319.72c2.69-0.09,4.19-0.34,5.47-1.21c0.9-0.62,1.23-2.03,1-3.78c-1.33,0.63-2.8,0.94-4.25,1.24
			c-0.7,0.14-1.39,0.28-2.1,0.36c-1.9,0.22-3.82,0.02-5.7-0.28c-0.77-0.12-1.7-0.45-2.5-0.47c-0.47,1.19-0.47,2.15-0.45,2.53
			C230.85,319.98,236.34,319.82,239.28,319.72z"/>
	</g>
	<path d="M86.08,182.68c-0.45,0.14-0.91,0.32-1.38,0.29c-0.36-0.03-0.7-0.18-1.01-0.36c-1.36-0.75-2.5-1.9-3.23-3.27
		c-0.61-1.15-1.06-2.58-2.27-3.08c-0.39-0.16-0.84-0.22-1.13-0.51c-0.37-0.37-0.36-0.98-0.6-1.45c-0.8,2.3,0.18,5.23-0.22,7.78
		c-0.15,1-0.88,2.39-1.39,3.26c-1.22,2.1-1.96,4.02-3.18,6.11c-0.42,0.72-0.85,1.46-0.97,2.29c-0.34,2.14,1.39,4.11,1.41,6.27
		c0.01,0.69-0.16,1.37-0.26,2.05c-0.11,0.76-0.13,1.53-0.15,2.3c-0.05,1.8-0.25,3.27-0.63,5.05c-0.11,0.51-0.19,1.82-0.21,2.34
		c-0.02,0.83,0.13,1.67,0.42,2.45c0.41,1.11,0.8,1.96,0.92,2.89c0.16,1.25,0.13,2.29-0.1,3.54c-0.05,0.25-0.21,0.78-0.26,1.02
		c-0.08,0.41-0.31,0.7-0.58,1.04c0.31-0.17,0.61-0.35,0.91-0.56c0.74-0.53,1.57-1.14,2.33-1.83c0.08,0.03,0.15,0.06,0.23,0.1
		c1.41-1.36,2.52-3.22,2.22-4.95c-0.12-1.43-0.07-3.66,0.58-4.55c0.65-0.89,2.88-2.05,3.53-3.17c1.34-2.03,2.23-5.48,2.34-8.54
		c0.81,3.37,1.2,4.73,0.99,6.27s-1.27,2.68-2.17,3.42c-1.65,1.36-2.06,4.68-1.01,6.78c1.05,2.1,0.23,3.97,2.04,6.16
		c1.16,1.41,0.07,3.56,1.32,4.9c1.25,1.33,2.02,2.24,3.97,2.81c0.59,0.17,1.7,0.62,3,1.68c0.34,0.28,0.66,0.62,1.08,0.75
		c0.95,0.29,1.96-0.46,2.34-1.37c0.38-0.92,0.32-1.94,0.31-2.94c-0.02-2.76,0.63-5.82,2.87-7.44c1.58-1.14,3.63-1.33,5.53-1.79
		c1.9-0.46,3.93-1.44,4.53-3.29c0.66-2.05-0.75-4.22-2.46-5.53c-1.71-1.31-3.78-2.15-5.31-3.66c-0.8-0.79-1.45-1.8-1.5-2.92
		c-0.08-1.82,1.38-3.28,2.46-4.75c1.08-1.47,1.77-3.76,0.39-4.95c-0.41-0.35-0.93-0.54-1.43-0.73c-2.38-0.91-3.28,0.64-5.26-0.49
		c-0.78-0.41-1.59-1.15-2.27-1.05c-0.68,0.1-3.63-0.21-5.15-0.84c1.67,0.03,3.51-0.16,4.94-0.78c1.64-0.52,3.08-1.37,4.15-2.64
		c0.4-0.47,0.2-1-0.95-2.05C93.5,182.62,89.08,181.73,86.08,182.68z"/>
	<path class="st1" d="M76.26,194.57c0.05-0.55,0.24-1.1,0.63-1.5c0.33-0.34,0.78-0.54,1.25-0.56c0.24-0.01,0.5,0.04,0.66,0.22
		c-0.16,0.09-0.35,0.04-0.54,0.03c-0.52-0.02-0.98,0.37-1.2,0.84c-0.22,0.47-0.26,1-0.29,1.52c-0.02,0.35-0.04,0.7-0.06,1.05
		c0.13-0.24,0.4-0.4,0.68-0.38c0.23,0.02,0.45,0.15,0.68,0.14c0.4-0.02,0.65-0.43,0.83-0.79c0.16-0.33,0.33-0.68,0.32-1.05
		c-0.15,0.2-0.35,0.41-0.59,0.39c-0.23-0.02-0.4-0.27-0.39-0.51c0.01-0.24,0.15-0.45,0.31-0.61c0.22-0.22,0.6-0.38,0.83-0.17
		c0.21,0.2,0.11,0.55,0,0.83c0.2-0.14,0.4-0.27,0.6-0.41c-0.15,0.83-0.33,1.72-0.92,2.32c-0.19,0.19-0.43,0.36-0.7,0.37
		c-0.23,0.01-0.44-0.08-0.66-0.13c-0.22-0.05-0.48-0.06-0.65,0.09c-0.09,0.08-0.15,0.19-0.25,0.23
		C76.13,196.74,76.24,194.82,76.26,194.57z"/>
</g>
</svg>
