<?xml version="1.0" encoding="utf-8"?>
<!-- Generator: Adobe Illustrator 24.0.0, SVG Export Plug-In . SVG Version: 6.00 Build 0)  -->
<svg version="1.1" xmlns="http://www.w3.org/2000/svg" xmlns:xlink="http://www.w3.org/1999/xlink" x="0px" y="0px"
	 viewBox="0 0 4000 4000" style="enable-background:new 0 0 4000 4000;" xml:space="preserve">
<style type="text/css">
	.st0{fill:#FFFFFF;}
	.st1{fill:#050505;}
	.st2{font-family:'BPGNinoMkhedruli-Bold';}
	.st3{font-size:263.9747px;}
</style>
<g id="BG">
</g>
<g id="text_bubble_v_er_1">
	<g>
		<g>
			<g>
				<path class="st0" d="M1470.58,1886.04c24.13,0,47.56,2.74,69.95,7.88c42.35-112.38,158.8-193.1,295.84-193.1
					c71.56,0,137.49,22.02,190.2,59.06c53.79-42.46,123.81-68.13,200.38-68.13c118.08,0,220.59,61.06,272.01,150.6
					c33.24-22.99,74.61-36.63,119.46-36.63c109.6,0,198.45,81.42,198.45,181.85c0,72.67-46.53,135.38-113.77,164.49
					c17.05,28.22,26.77,60.67,26.77,95.2c0,108.69-96.15,196.79-214.76,196.79c-39.59,0-76.66-9.82-108.5-26.94
					c-38.63,116.52-156.78,201.32-296.56,201.32c-66.63,0-128.35-19.27-178.88-52.06c-43.95,41.36-105.37,67.05-173.34,67.05
					c-133.63,0-241.95-99.26-241.95-221.71c0-0.83,0.02-1.67,0.04-2.5c-14.77,2.15-29.91,3.27-45.34,3.27
					c-158.65,0-287.25-117.85-287.25-263.22C1183.33,2003.88,1311.93,1886.04,1470.58,1886.04z"/>
			</g>
			<g>
				<ellipse class="st0" cx="2520.28" cy="2604.79" rx="97.69" ry="89.52"/>
			</g>
			<g>
				<path class="st0" d="M2704.97,2664.3c36.86,0,66.74,27.38,66.74,61.15c0,33.78-29.88,61.15-66.74,61.15
					c-36.86,0-66.74-27.38-66.74-61.15C2638.24,2691.68,2668.12,2664.3,2704.97,2664.3z"/>
			</g>
		</g>
		<g>
			<path class="st1" d="M1157.68,2218.19c16.14,70.54,58.58,133.05,122.38,175.71c59.12,39.52,132.41,57.32,204.89,52.56
				c3.5,35.04,15.72,68.99,34.42,99.79c36.83,60.67,103.75,104.59,178.11,117.72c42.18,7.45,86.87,5.49,127.92-6.15
				c37.3-10.58,70.67-27.53,100.18-49.98c35.16,20.04,74.8,34.16,115.49,40.76c86.36,14.02,174.63-4.06,247.81-47.7
				c55.76-33.25,100.78-81.88,129.06-137.24c28.1,10.2,58.29,15.54,88.53,15.1c86.66-1.25,163.8-42.87,211.59-108.57
				c44.11-60.64,56.46-140.66,29.91-209.36c61.65-42.73,99.39-110.51,100.83-182.42c1.45-72.31-40.6-143.39-109.08-180
				c-33.46-17.89-72.13-27.72-110.88-27.47c-40.39,0.26-78.98,9.78-113.66,27.53c-8.29-12.35-17.4-24.2-27.76-35.28
				c-53.64-57.37-130.25-96.28-212.57-104.45c-85.57-8.5-172.03,13.31-240.87,60.04c-34.91-21.87-74.56-37.55-115.87-45.84
				c-82.85-16.62-173.84-3.71-246.45,36.88c-62.56,34.97-112.71,84.65-144.33,144.54c-14.39-1.99-28.91-3.02-43.54-3.1
				c-35.94,0.13-69.9,4.91-104.08,15.1C1223.77,1912.84,1124.05,2071.21,1157.68,2218.19z M2780.77,1964.46
				C2780.61,1963.77,2780.64,1963.92,2780.77,1964.46L2780.77,1964.46z M2692.54,2296.95
				C2692.3,2297.8,2692.21,2298.12,2692.54,2296.95L2692.54,2296.95z M1215.35,2131.87c0.04-0.87,0.08-1.79,0.11-2.31
				c0.27-4.14,0.58-8.27,1.06-12.39c0.94-8.13,2.19-16.24,3.95-24.27c0.5-2.27,1.02-4.53,1.57-6.78c1.12-3.84,2.29-7.68,3.6-11.47
				c2.63-7.59,5.54-15.11,8.91-22.45c0.68-1.49,1.38-2.98,2.09-4.46c0.16-0.32,0.32-0.61,0.45-0.86c1.9-3.53,3.85-7.05,5.93-10.5
				c4.14-6.88,8.53-13.63,13.32-20.15c0.56-0.77,1.6-2.11,2.48-3.24c0.37-0.45,0.72-0.91,1.1-1.36c2.59-3.11,5.22-6.19,7.96-9.19
				c5.47-5.99,11.16-11.82,17.19-17.34c0.83-0.76,2.67-2.36,3.84-3.38c0.38-0.31,0.75-0.64,1.13-0.95c3.19-2.6,6.41-5.16,9.72-7.62
				c6.63-4.93,13.44-9.67,20.52-14.04c2.31-1.43,4.64-2.85,7-4.22c3.51-1.89,7.04-3.75,10.63-5.51c7.61-3.71,15.36-7.18,23.31-10.25
				c4.66-1.8,9.36-3.53,14.12-5.1c2.05-0.67,4.1-1.35,6.16-1.98c0.01,0,0.02-0.01,0.04-0.01c0.02-0.01,0.04-0.01,0.06-0.02
				c8.42-2.32,16.94-4.36,25.56-5.96c9.47-1.75,19.03-3.16,28.65-4.03c4.5-0.4,9.01-0.76,13.52-0.97c2.22-0.1,4.44-0.21,6.66-0.26
				c0.35,0,0.79,0,1.35,0c23.64,0.12,46.99,2.73,69.95,7.88c19.23,4.31,37.16-16.73,42.51-30.74c2.52-6.62,5.24-13.18,8.29-19.61
				c0.35-0.74,0.93-1.92,1.42-2.88c1.24-2.31,2.48-4.63,3.79-6.91c3.52-6.14,7.2-12.2,11.2-18.09c1.99-2.94,4.01-5.86,6.11-8.73
				c0.65-0.89,2.04-2.68,3.02-3.96c9.62-11.79,20.13-22.96,31.6-33.26c1.16-1,2.54-2.18,3.23-2.74c1.68-1.37,3.37-2.75,5.08-4.09
				c3.43-2.68,6.9-5.33,10.46-7.88c7.12-5.1,14.43-9.99,22.01-14.51c1.21-0.72,5.22-2.97,5.8-3.32c0.54-0.29,1.08-0.58,1.62-0.87
				c3.95-2.06,7.92-4.09,11.96-6c8.12-3.83,16.38-7.41,24.83-10.57c4.96-1.85,9.95-3.64,15.01-5.25c1.17-0.38,2.35-0.75,3.53-1.12
				c1.16-0.33,2.92-0.84,3.63-1.02c8.94-2.38,17.98-4.49,27.12-6.13c10.04-1.8,20.17-3.25,30.36-4.14c4.76-0.42,9.54-0.78,14.32-1
				c2.41-0.11,4.81-0.22,7.22-0.28c0.13,0,0.23-0.01,0.34-0.01c0.36,0,0.81,0.01,1.38,0.01c23.02,0.09,46.06,2.21,68.52,6.9
				c6.14,1.28,12.26,2.67,18.31,4.29c2.58,0.69,5.15,1.38,7.71,2.14c0.48,0.14,4.98,1.56,5.12,1.56c9.23,3.1,18.34,6.51,27.2,10.41
				c19.82,8.73,38.53,19.23,56.04,31.42c8.93,6.22,24.16,1.02,31.51-4.73c10.83-8.48,22.22-16.38,34.21-23.43
				c1.42-0.78,5.04-2.79,6.02-3.3c2.25-1.17,4.5-2.33,6.78-3.45c4.57-2.23,9.18-4.41,13.87-6.43c9.43-4.06,19.05-7.78,28.89-10.93
				c1.51-0.49,3.03-0.97,4.55-1.44c2.42-0.67,4.84-1.34,7.28-1.95c5.11-1.28,10.23-2.5,15.41-3.54c10.47-2.09,21.03-3.81,31.68-4.89
				c6.3-0.64,12.62-1.17,18.96-1.46c1.97-0.09,3.94-0.17,5.92-0.23c0.89,0.01,4.55-0.03,5.12-0.03c9.93,0.11,19.85,0.54,29.73,1.52
				c20.04,1.99,39.91,5.57,59.15,11.14c1.21,0.35,9.65,3,5.41,1.58c1.76,0.58,3.52,1.17,5.27,1.79c4.42,1.56,8.81,3.17,13.14,4.91
				c8.62,3.47,17.1,7.23,25.34,11.41c17.02,8.66,33.27,18.64,48.21,30.1c0.84,0.64,1.68,1.29,2.52,1.94
				c0.14,0.12,0.3,0.24,0.47,0.38c1.73,1.43,3.46,2.86,5.15,4.33c3.39,2.93,6.73,5.9,9.97,8.96c6.48,6.14,12.73,12.48,18.58,19.13
				c6.34,7.21,12.39,14.65,17.94,22.41c2.56,3.59,5.08,7.2,7.47,10.89c1.19,1.85,2.39,3.7,3.53,5.57c0.02,0.04,0.04,0.06,0.06,0.1
				c0.16,0.28,0.36,0.62,0.6,1.04c3.94,6.8,7.94,12.13,16.98,13.39c8.83,1.22,17.32-2.37,24.2-7.06c3.48-2.38,7-4.71,10.65-6.88
				c0.43-0.25,0.77-0.46,1.06-0.64c1.44-0.77,2.89-1.52,4.35-2.26c6.94-3.44,14.03-6.62,21.37-9.28c1.65-0.6,12.32-3.93,8.55-2.96
				c2.82-0.78,5.65-1.53,8.51-2.17c7.88-1.77,15.85-3.25,23.91-4.12c4.55-0.49,9.12-0.93,13.69-1.13c0.57-0.03,6.81-0.09,5.35-0.12
				c0.8,0.01,1.6,0.01,2.4,0.02c6.79,0.18,13.57,0.56,20.31,1.37c12.12,1.45,24.13,3.78,35.76,7.24c0.98,0.35,4.87,1.64,5.79,1.98
				c2,0.75,4.01,1.49,5.98,2.3c3.94,1.61,7.85,3.28,11.66,5.12c7.58,3.66,14.98,7.66,21.99,12.19c4.07,2.63,8.08,5.34,11.93,8.25
				c0.7,0.53,2.94,2.34,3.35,2.65c0.68,0.57,1.35,1.14,2.02,1.73c6.15,5.4,12.03,11.09,17.39,17.17c5.81,6.6,11.24,13.5,16,20.79
				c0.64,0.98,1.27,1.96,1.9,2.95c0.53,0.91,1.27,2.16,1.55,2.69c1.93,3.54,3.79,7.11,5.46,10.75c3.65,7.97,6.83,16.14,9.19,24.51
				c0.44,1.54,0.86,3.08,1.26,4.63c0.13,0.58,0.25,1.12,0.32,1.46c0.78,4.03,1.48,8.07,1.96,12.14c0.57,4.81,1.01,9.64,1.16,14.47
				c0.07,2.13-0.29,12.5-0.04,9.71c-0.58,7.84-1.6,15.66-3.31,23.36c-0.27,1.22-1.17,4.49-1.54,5.88c-0.2,0.64-0.39,1.28-0.61,1.92
				c-1.37,4.11-2.83,8.21-4.52,12.22c-0.89,2.11-4.63,9.59-4.46,9.47c-1.22,2.19-2.48,4.35-3.81,6.48
				c-2.5,3.99-5.11,7.92-7.92,11.73c-1.27,1.53-2.54,3.05-3.86,4.54c-2.9,3.26-5.87,6.48-9.01,9.56c-1.54,1.51-7.84,6.98-7.82,7.08
				c-6.23,4.97-12.75,9.66-19.63,13.85c-0.89,0.54-1.79,1.09-2.69,1.63c-1.03,0.56-2.37,1.29-3.05,1.63
				c-4.06,2.06-8.17,4.01-12.36,5.85c-12.51,5.5-21.81,16.32-26.32,28.19c-2.64,6.92-5.07,18.43-0.91,25.42
				c5.35,8.99,10.13,18.28,13.89,27.93c1.9,4.88,3.69,9.79,5.16,14.79c0.56,1.91,1.11,3.82,1.62,5.74c0.31,1.35,0.91,3.91,1,4.38
				c2.13,11.44,3.38,23.02,3.32,34.63c0,0.75-0.06,2.26-0.1,3.35c-0.05,0.88-0.11,1.75-0.19,2.63c-0.35,4.1-0.77,8.2-1.4,12.28
				c-0.73,4.7-1.56,9.39-2.66,14.03c-0.12,0.51-0.31,1.25-0.51,1.98c-0.26,0.88-0.52,1.75-0.8,2.62
				c-2.45,7.64-5.28,15.18-8.72,22.49c-0.1,0.21-0.19,0.4-0.28,0.59c-0.83,1.53-1.66,3.06-2.53,4.57
				c-2.01,3.47-4.08,6.91-6.31,10.26c-1.93,2.9-3.92,5.76-6,8.56c-1.15,1.39-2.3,2.78-3.49,4.14c-4.83,5.5-9.93,10.81-15.35,15.83
				c-1.69,1.4-5.53,4.66-6.86,5.68c-3.27,2.5-6.58,4.97-10,7.29c-3.99,2.71-8.04,5.35-12.23,7.79c-1.62,0.86-3.23,1.72-4.88,2.54
				c-7.56,3.77-15.32,7.23-23.33,10.14c-2.69,0.98-5.38,1.94-8.11,2.81c-0.79,0.25-2.6,0.78-3.67,1.09c-2.99,0.8-6,1.56-9.04,2.22
				c-8.63,1.89-17.37,3.4-26.19,4.29c-5.23,0.53-10.49,0.96-15.75,1.13c-0.44,0.01-0.81,0.03-1.12,0.04c-0.02,0-0.03,0-0.05,0
				c-2.88-0.02-5.77-0.03-8.65-0.16c-11.29-0.48-22.58-1.56-33.66-3.66c-6.33-1.2-12.64-2.55-18.83-4.27
				c-1.92-0.53-3.83-1.08-5.73-1.65c-0.4-0.18-4.71-1.63-5.1-1.78c-10.09-3.74-19.81-8.1-29.24-13.09
				c-20.64-10.94-44.3,12-49.81,28.41c-2.24,6.66-4.67,13.27-7.44,19.76c-1.38,3.23-2.78,6.45-4.29,9.63
				c-0.34,0.72-0.97,1.97-1.57,3.15c-5.44,10.18-11.46,20.11-18.21,29.61c-1.52,2.14-3.05,4.27-4.63,6.37
				c-2.39,2.96-4.82,5.9-7.34,8.78c-5.61,6.38-11.44,12.59-17.63,18.51c-2.06,1.97-4.13,3.93-6.25,5.85c-0.4,0.36-1,0.89-1.61,1.42
				c-2.43,2.05-4.89,4.08-7.4,6.04c-6.8,5.32-13.8,10.44-21.08,15.21c-4.25,2.78-8.55,5.51-12.96,8.1
				c-0.72,0.42-2.18,1.24-3.19,1.81c-0.74,0.4-1.47,0.79-2.21,1.18c-7.83,4.1-15.81,7.96-24,11.42c-8.94,3.77-18.03,7.24-27.32,10.2
				c-1.16,0.37-2.33,0.74-3.49,1.11c-1.15,0.33-2.83,0.81-3.52,0.99c-4.42,1.18-8.85,2.31-13.32,3.31
				c-18.95,4.22-38.31,6.98-57.8,7.87c-2.19,0.1-4.38,0.18-6.57,0.25c-1.09-0.01-4.47,0.02-5.07,0.01
				c-5.66-0.07-11.33-0.21-16.98-0.56c-11.12-0.69-22.23-1.79-33.21-3.57c-11.68-1.9-23.28-4.27-34.65-7.39
				c-2.6-0.71-5.2-1.43-7.78-2.2c-0.5-0.15-5.98-1.94-5.02-1.6c-4.35-1.48-8.68-3.02-12.94-4.7c-20.48-8.04-39.89-17.97-58.14-29.7
				c-13.22-8.5-30.03,2.9-38.9,11.16c-0.91,0.85-1.82,1.7-2.74,2.54c-0.92,0.78-2.03,1.73-2.62,2.2c-3.16,2.54-6.34,5.06-9.64,7.44
				c-6.6,4.79-13.4,9.36-20.52,13.49c-0.05,0.03-0.09,0.05-0.13,0.08c-0.16,0.08-0.31,0.16-0.49,0.26c-2.2,1.16-4.4,2.32-6.63,3.42
				c-3.74,1.83-7.5,3.63-11.34,5.29c-7.72,3.32-15.59,6.38-23.66,8.94c-0.71,0.23-1.43,0.44-2.14,0.67
				c-0.42,0.11-1.06,0.29-1.93,0.53c-2.49,0.65-4.99,1.31-7.5,1.89c-5.06,1.17-10.15,2.25-15.29,3.12
				c-10.43,1.75-20.98,3.02-31.58,3.5c-1.67,0.08-3.34,0.15-5.01,0.2c-0.17,0-0.34,0-0.52,0c-2.3-0.01-4.59-0.02-6.89-0.09
				c-4.55-0.14-9.1-0.33-13.63-0.7c-8.92-0.72-17.82-1.79-26.61-3.42c-9.35-1.73-18.62-3.86-27.68-6.6
				c-0.44-0.13-0.81-0.24-1.1-0.33c-1.99-0.67-3.97-1.35-5.94-2.07c-4.02-1.48-8.02-3.01-11.95-4.69
				c-16.22-6.93-31.72-15.33-45.89-25.37c-2.25-1.6-4.5-3.2-6.7-4.87c-0.55-0.42-2.08-1.65-2.9-2.29c-2.42-2.01-4.82-4.04-7.14-6.15
				c-6.07-5.51-11.9-11.24-17.3-17.31c-5.86-6.58-11.41-13.41-16.42-20.57c-2.32-3.31-4.59-6.66-6.71-10.08
				c-0.13-0.21-0.24-0.39-0.34-0.55c-0.99-1.74-1.98-3.47-2.91-5.23c-7.97-14.95-14.31-30.67-18.4-46.89
				c-0.08-0.34-0.15-0.62-0.22-0.87c-0.09-0.44-0.2-0.88-0.29-1.33c-0.4-2.01-0.8-4.02-1.14-6.03c-0.69-4.06-1.31-8.14-1.75-12.23
				c-0.9-8.46-1.36-16.93-1.24-25.43c0.19-13.4-12.81-22.94-26.74-20.98c-7.94,1.12-15.92,2.04-23.93,2.55
				c-3.57,0.22-7.14,0.42-10.72,0.53c-0.63-0.02-6.62,0.04-7.3,0.02c-18.72-0.34-37.43-2.13-55.74-5.78
				c-9.29-1.85-18.52-4.04-27.57-6.74c-0.97-0.29-4.74-1.5-4.3-1.34c-0.93-0.31-1.85-0.63-2.77-0.95c-4.04-1.43-8.07-2.9-12.03-4.49
				c-16.39-6.59-32.2-14.43-46.97-23.71c-7.63-4.79-15.07-9.84-22.17-15.29c-0.54-0.41-2.02-1.6-2.85-2.26
				c-0.85-0.7-1.71-1.39-2.54-2.1c-3.12-2.66-6.21-5.35-9.21-8.13c-12.47-11.6-23.93-24.14-33.87-37.66
				c-2.79-3.79-5.52-7.63-8.1-11.55c-1.1-1.68-2.21-3.37-3.27-5.07c-0.28-0.44-0.87-1.44-1.37-2.29
				c-3.66-6.39-7.1-12.89-10.15-19.55c-3.65-7.95-6.97-16.04-9.75-24.28c-1.29-3.84-2.54-7.68-3.63-11.57
				c-0.47-1.67-2.37-9.49-2.39-9.24c-3.28-15.81-5.15-31.88-5.22-47.99C1215.31,2135.76,1215.32,2133.82,1215.35,2131.87z"/>
			<path class="st1" d="M2393.53,2592.07c-7.68,24.14-7.33,49.28,4.77,72.31c10.75,20.46,29.93,37.1,52.75,46.03
				c25.52,9.99,55.98,10.33,82.18,2.14c37.74-11.8,74.46-33.87,97.14-64.51c15.55-21.01,25.13-46.53,21.45-72.14
				c-3.29-22.87-14.31-44.62-33.55-59.85c-20.43-16.18-44.67-24.2-71.48-24.7c-0.52-0.03-1.07-0.05-1.65-0.04
				c-31.71,0.22-62.8,12.42-88.45,28.87C2429.53,2537.6,2403.06,2562.1,2393.53,2592.07z M2471.85,2542.71
				c0.03-0.01,0.05-0.02,0.08-0.03C2465.75,2547.1,2469.47,2544.25,2471.85,2542.71z M2570.91,2665.76
				C2574.56,2663.66,2572.9,2664.67,2570.91,2665.76L2570.91,2665.76z M2560.42,2669.24
				C2563.44,2668.71,2562.03,2668.98,2560.42,2669.24L2560.42,2669.24z M2460.05,2565.48c1.07-3.22,2.32-6.39,3.81-9.47
				c0.98-2.01,1.99-4.02,3.13-5.96c0.23-0.39,0.59-0.96,0.92-1.48c1.26-1.76,2.56-3.5,3.96-5.17c0.12-0.15,0.23-0.28,0.34-0.4
				c0.22-0.22,0.44-0.43,0.66-0.65c0.71-0.24,1.5-0.5,2.2-0.73c1.14-0.31,2.28-0.6,3.44-0.85c0.87-0.19,1.74-0.38,2.61-0.56
				c4.75-0.61,9.51-0.93,14.31-0.97c2.06,0.01,4.11,0.1,6.17,0.21c14.88,1.7,28.98,6.36,41.6,13.76
				c18.47,12.2,31.77,29.64,37.83,49.76c3.21,13.57,3.05,27.5-0.47,41.01c-1.23,3.68-2.67,7.31-4.43,10.8
				c-0.82,1.63-1.68,3.25-2.59,4.84c-0.73,1.1-1.8,2.71-2.31,3.38c-0.75,0.98-2.49,2.97-3.55,4.19c-1.02,0.35-2.07,0.69-2.83,0.94
				c-0.92,0.24-1.84,0.48-2.77,0.69c-0.94,0.21-1.89,0.41-2.84,0.61c-0.16,0.02-0.32,0.04-0.45,0.06c-2.49,0.3-5,0.57-7.51,0.69
				c-4.06,0.2-8.11,0.19-12.16-0.02c-14.92-1.68-29.06-6.35-41.72-13.77c-18.47-12.2-31.78-29.65-37.83-49.76
				C2456.33,2593.01,2456.5,2579.03,2460.05,2565.48z"/>
			<path class="st1" d="M2605.03,2696.96c-13.13,23.34-8.7,51.21,10.38,70.65c8.81,8.97,19.86,15.08,32.32,18.9
				c9.74,2.99,20.31,4.65,30.53,5.39c17.79,1.29,35.68,1.58,53.46-0.08c29.65-2.76,58.77-12.21,73.2-37.88
				c11.33-20.13,10.14-45.29-4.49-63.84c-7.18-9.1-16.16-16.94-27.38-21.69c-16.58-7.02-34.55-9.32-52.61-10.11
				c-5.16-0.33-10.35-0.44-15.47-0.39c-5.51-0.06-11.11,0.1-16.67,0.52C2655.32,2660.29,2621.38,2667.89,2605.03,2696.96z
				 M2692.56,2688.66c3.6-4.02,7.7-7.68,12.26-10.79c4.45,3,8.49,6.46,12.1,10.37c17.99,21.84,18.22,51.94,0.48,74.01
				c-3.6,4.02-7.7,7.68-12.25,10.79c-4.45-3-8.49-6.46-12.09-10.37C2675.05,2740.83,2674.82,2710.74,2692.56,2688.66z"/>
		</g>
	</g>
	<text transform="matrix(1 0 0 1 1492.652 2198.2)" class="st2 st3">მმუუუუ!</text>
</g>
</svg>
