<?xml version="1.0" encoding="utf-8"?>
<!-- Generator: Adobe Illustrator 24.0.0, SVG Export Plug-In . SVG Version: 6.00 Build 0)  -->
<svg version="1.1" id="Layer_1" xmlns="http://www.w3.org/2000/svg" xmlns:xlink="http://www.w3.org/1999/xlink" x="0px" y="0px"
	 viewBox="0 0 792 612" style="enable-background:new 0 0 792 612;" xml:space="preserve">
<style type="text/css">
	.st0{fill:url(#SVGID_1_);}
	.st1{fill:#FB821E;}
	.st2{fill:#8E4413;}
	.st3{fill:#64D7CC;}
	.st4{fill:#FFFFFF;}
	.st5{fill:url(#SVGID_2_);}
	.st6{fill:url(#SVGID_3_);}
	.st7{fill:url(#SVGID_4_);}
	.st8{fill:url(#SVGID_5_);}
	.st9{fill:url(#SVGID_6_);}
	.st10{fill:url(#SVGID_7_);}
	.st11{fill:url(#SVGID_8_);}
	.st12{fill:url(#SVGID_9_);}
	.st13{fill:url(#SVGID_10_);}
	.st14{fill:url(#SVGID_11_);}
	.st15{fill:#910A6E;}
	.st16{fill:url(#SVGID_12_);}
	.st17{fill:#85D1DA;}
	.st18{fill:#D3EEEF;}
</style>
<g>
	<linearGradient id="SVGID_1_" gradientUnits="userSpaceOnUse" x1="128.1982" y1="285.473" x2="671.4758" y2="285.473">
		<stop  offset="0" style="stop-color:#20085C"/>
		<stop  offset="1" style="stop-color:#2E186A"/>
	</linearGradient>
	<path class="st0" d="M671.48,294.85c0,67.06-121.62,121.42-271.64,121.42c-150.02,0-271.64-54.36-271.64-121.42
		c0-67.06,121.62-140.18,271.64-140.18C549.86,154.67,671.48,227.79,671.48,294.85z"/>
	<path class="st1" d="M783.74,316.99c0,67.06-173.67,121.42-387.91,121.42S7.92,384.05,7.92,316.99
		c0-67.06,173.67-140.18,387.91-140.18S783.74,249.93,783.74,316.99z"/>
	<path class="st2" d="M783.74,336.11c0,67.06-173.67,121.42-387.91,121.42S7.92,403.17,7.92,336.11s173.67-140.18,387.91-140.18
		S783.74,269.05,783.74,336.11z"/>
	<ellipse class="st3" cx="395.83" cy="336.73" rx="387.91" ry="121.42"/>
	<ellipse class="st3" cx="395.83" cy="336.73" rx="387.91" ry="121.42"/>
	<g>
		<path class="st4" d="M654.42,294.44c-5.7-2.18-11.7-4.29-18.04-6.31c-8.72,10.75-17.49,21.46-26.28,32.16
			c4.53,1.62,8.81,3.29,12.89,5.01C633.38,315.1,643.67,304.49,654.42,294.44z"/>
		<path class="st4" d="M674.37,309.93c1.73-1.42,3.44-2.86,5.16-4.29c-6.31-3.32-13.29-6.53-20.95-9.59
			c-10.84,10.02-21.19,20.67-31.61,30.98c5.61,2.5,10.7,5.11,15.33,7.8C653.13,326.7,663.92,318.5,674.37,309.93z"/>
		<path class="st4" d="M683.41,307.74c-4.08,3.4-8.19,6.76-12.44,9.96c-8.44,6.34-16.77,12.81-25.12,19.25
			c9.78,6.12,16.96,12.66,21.05,19.51c15.69-7.3,31.59-14.13,47.58-20.75C709.46,325.77,698.76,316.36,683.41,307.74z"/>
		<path class="st4" d="M233.11,302.55c1.25,1.31,2.53,2.59,3.78,3.89c24.48-5.24,52.09-9.33,81.89-11.97
			c-3.56-11.01-7.25-21.98-11.11-32.89c-35.88,3.03-69.04,7.83-98.41,14.01C217.27,284.55,224.88,293.94,233.11,302.55z"/>
		<path class="st4" d="M230.28,305.39c-8.75-9.18-16.85-19.32-25.48-28.85c-9.07,1.98-17.81,4.08-26.09,6.32
			c11.81,9.54,23.47,19.24,34.97,29.14c5.95-1.59,12.21-3.09,18.63-4.53C231.63,306.78,230.95,306.1,230.28,305.39z"/>
		<path class="st4" d="M173.96,284.18c-18.14,5.12-34.19,10.84-47.63,17.07c14.42,6.94,28.8,13.96,43.23,20.87
			c1.86,0.89,3.73,1.77,5.59,2.67c10-4.14,21.37-7.98,33.85-11.48C197.48,303.4,185.79,293.7,173.96,284.18z"/>
		<path class="st4" d="M128.97,346.01c2.53,0.75,5.06,1.47,7.59,2.21c5.03-5.09,11.77-9.96,20.03-14.57
			c-3.03-1.46-6.07-2.9-9.1-4.36c-12.57-6.07-26.29-11.79-39.96-17.98c-10.01,6.29-17.57,12.96-22.37,19.92
			C100.03,336.02,114.68,341.77,128.97,346.01z"/>
		<path class="st4" d="M115.77,388.44c-2.25-0.37-4.54-0.83-6.85-1.33c14.37,8.81,33.51,16.87,56.55,23.88
			c-12.39-5.91-22.17-12.33-28.9-19.12C129.64,390.7,122.71,389.57,115.77,388.44z"/>
		<path class="st4" d="M95.92,377.8c1.36,1.15,2.76,2.3,4.27,3.43c4.3,1.05,8.56,2.01,12.77,2.7c6.5,1.05,13,2.12,19.49,3.19
			c-1.85-2.43-3.25-4.9-4.31-7.41C117.4,378.9,106.67,378.18,95.92,377.8z"/>
		<path class="st4" d="M88.62,370.52c1.41,0,2.03,1.2,1.89,2.29c0.26,0.27,0.58,0.54,0.85,0.81c11.82,0.3,23.61,1.08,35.4,1.97
			c-0.45-1.84-0.76-3.69-0.76-5.57c0-2.6,0.45-5.18,1.3-7.71c-0.87-0.26-1.74-0.5-2.61-0.77c-14.54-4.38-29.87-10.58-45.38-15.48
			c-0.1,0.91-0.15,1.83-0.15,2.75c0,7.5,3.2,14.79,9.21,21.76C88.47,370.56,88.53,370.52,88.62,370.52z"/>
		<path class="st4" d="M398.5,257.82c-25.58,0-50.43,0.88-74.27,2.5c3.83,10.9,7.44,21.87,10.97,32.87
			c20.32-1.4,41.5-2.17,63.3-2.17c3.57,0,7.11,0.04,10.65,0.08c1.45-11.05,2.84-22.11,4.16-33.18
			C408.4,257.86,403.47,257.82,398.5,257.82z"/>
		<path class="st4" d="M463.38,259.73c-11.16-0.66-22.51-1.17-34.07-1.48c-1.33,11.06-2.71,22.12-4.16,33.17
			c10.03,0.28,19.88,0.74,29.56,1.33C457.15,281.59,459.95,270.55,463.38,259.73z"/>
		<path class="st4" d="M493.79,261.98c-8.62-0.77-17.37-1.45-26.29-2.01c-3.49,10.82-6.34,21.86-8.79,33.02
			c8.56,0.56,16.95,1.25,25.18,2.04C487.31,284.05,490.6,273.03,493.79,261.98z"/>
		<path class="st4" d="M497.86,262.34c-3.18,11.06-6.48,22.09-9.9,33.07c40.53,4.08,76.7,10.85,105.96,19.59
			c8.68-10.57,17.35-21.14,25.97-31.75C585.67,273.87,544.08,266.65,497.86,262.34z"/>
		<path class="st4" d="M667.55,382.55c-5.64,10.27-18.1,19.89-36.02,28.43c38.51-11.71,66.25-26.33,78.77-42.57
			C695.94,372.81,681.68,377.48,667.55,382.55z"/>
		<path class="st4" d="M713.7,363.2c2.1-3.76,3.46-7.6,3.88-11.5c-15.72,6.56-31.33,13.34-46.73,20.61
			c-0.17,1.73-0.54,3.45-1.09,5.16C684.28,372.33,698.95,367.65,713.7,363.2z"/>
	</g>
	<g>
		<linearGradient id="SVGID_2_" gradientUnits="userSpaceOnUse" x1="46.2017" y1="267.39" x2="66.902" y2="267.39">
			<stop  offset="0" style="stop-color:#20085C"/>
			<stop  offset="1" style="stop-color:#2E186A"/>
		</linearGradient>
		<path class="st5" d="M64.06,254c-6.67,3.96-12.65,8.04-17.86,12.25c0.39,4.83,0.91,9.67,1.42,14.52
			c5.61-4.4,12.08-8.66,19.28-12.78C65.93,263.34,64.99,258.67,64.06,254z"/>
		<linearGradient id="SVGID_3_" gradientUnits="userSpaceOnUse" x1="187.9354" y1="212.7123" x2="265.1147" y2="212.7123">
			<stop  offset="0" style="stop-color:#20085C"/>
			<stop  offset="1" style="stop-color:#2E186A"/>
		</linearGradient>
		<path class="st6" d="M187.94,226.63c23.93-5.01,49.79-9.18,77.18-12.37c-0.24-5.16-0.52-10.31-0.8-15.47
			c-26.92,3.16-52.35,7.26-75.93,12.17C188.24,216.19,188.08,221.41,187.94,226.63z"/>
		<linearGradient id="SVGID_4_" gradientUnits="userSpaceOnUse" x1="146.7874" y1="225.3715" x2="172.2484" y2="225.3715">
			<stop  offset="0" style="stop-color:#20085C"/>
			<stop  offset="1" style="stop-color:#2E186A"/>
		</linearGradient>
		<path class="st7" d="M172.25,214.53c-8.78,2.05-17.29,4.2-25.46,6.47c0.39,5.08,0.82,10.15,1.32,15.22
			c7.61-2.1,15.54-4.09,23.69-6C171.94,224.99,172.09,219.76,172.25,214.53z"/>
		<linearGradient id="SVGID_5_" gradientUnits="userSpaceOnUse" x1="116.1528" y1="235.394" x2="132.4651" y2="235.394">
			<stop  offset="0" style="stop-color:#20085C"/>
			<stop  offset="1" style="stop-color:#2E186A"/>
		</linearGradient>
		<path class="st8" d="M131.06,225.63c-5.12,1.6-10.09,3.24-14.91,4.93c0.91,4.87,1.87,9.74,2.86,14.6
			c4.36-1.49,8.86-2.95,13.45-4.37C131.94,235.74,131.48,230.69,131.06,225.63z"/>
		<linearGradient id="SVGID_6_" gradientUnits="userSpaceOnUse" x1="369.5808" y1="199.7533" x2="451.7134" y2="199.7533">
			<stop  offset="0" style="stop-color:#20085C"/>
			<stop  offset="1" style="stop-color:#2E186A"/>
		</linearGradient>
		<path class="st9" d="M451.71,192.63c-18.24-0.85-36.89-1.31-55.89-1.31c-8.22,0-16.34,0.12-24.42,0.28
			c-0.59,5.2-1.21,10.4-1.83,15.6c8.68-0.19,17.41-0.33,26.25-0.33c18.79,0,37.22,0.46,55.26,1.3
			C451.28,203,451.5,197.81,451.71,192.63z"/>
		<linearGradient id="SVGID_7_" gradientUnits="userSpaceOnUse" x1="466.9934" y1="202.0444" x2="490.0222" y2="202.0444">
			<stop  offset="0" style="stop-color:#20085C"/>
			<stop  offset="1" style="stop-color:#2E186A"/>
		</linearGradient>
		<path class="st10" d="M490.02,195.1c-7.38-0.6-14.82-1.15-22.36-1.61c-0.23,5.18-0.46,10.37-0.66,15.56
			c7.3,0.44,14.49,0.97,21.63,1.54C488.99,205.42,489.45,200.26,490.02,195.1z"/>
		<linearGradient id="SVGID_8_" gradientUnits="userSpaceOnUse" x1="504.5118" y1="204.7416" x2="515.2544" y2="204.7416">
			<stop  offset="0" style="stop-color:#20085C"/>
			<stop  offset="1" style="stop-color:#2E186A"/>
		</linearGradient>
		<path class="st11" d="M515.25,197.5c-3.12-0.33-6.19-0.69-9.35-1c-0.58,5.15-1.03,10.3-1.39,15.47c3.21,0.3,6.33,0.67,9.5,1
			C514.38,207.82,514.8,202.66,515.25,197.5z"/>
		<linearGradient id="SVGID_9_" gradientUnits="userSpaceOnUse" x1="529.8111" y1="207.8219" x2="544.2718" y2="207.8219">
			<stop  offset="0" style="stop-color:#20085C"/>
			<stop  offset="1" style="stop-color:#2E186A"/>
		</linearGradient>
		<path class="st12" d="M544.27,200.95c-4.38-0.59-8.79-1.16-13.25-1.7c-0.45,5.15-0.86,10.3-1.21,15.46
			c4.49,0.54,8.92,1.11,13.33,1.69C543.57,211.25,543.93,206.1,544.27,200.95z"/>
		<linearGradient id="SVGID_10_" gradientUnits="userSpaceOnUse" x1="558.9837" y1="213.4903" x2="591.0615" y2="213.4903">
			<stop  offset="0" style="stop-color:#20085C"/>
			<stop  offset="1" style="stop-color:#2E186A"/>
		</linearGradient>
		<path class="st13" d="M560.15,203.21c-0.35,5.14-0.74,10.28-1.17,15.42c10.45,1.57,20.64,3.27,30.5,5.14
			c0.6-5.09,1.12-10.19,1.58-15.29C581.07,206.57,570.74,204.82,560.15,203.21z"/>
		<linearGradient id="SVGID_11_" gradientUnits="userSpaceOnUse" x1="644.3284" y1="256.4526" x2="770.7062" y2="256.4526">
			<stop  offset="0" style="stop-color:#20085C"/>
			<stop  offset="1" style="stop-color:#2E186A"/>
		</linearGradient>
		<path class="st14" d="M759.7,287.33c0.69,0.42,1.4,0.82,2.08,1.24c1.59,0.98,3.22,1.99,4.86,3.03
			c-12.94-27.77-56.85-52.39-120.53-70.28c-0.54,5.04-1.13,10.07-1.78,15.1c31.5,8.74,58.1,19.15,78.74,30.73
			C735.95,271.95,747.97,279.4,759.7,287.33z"/>
	</g>
	<g>
		<path class="st4" d="M382.7,240.91c-180.37,2.27-326.61,44.87-341.04,98.5c1.31,0.17,2.63,0.32,3.95,0.49
			c14.01-51.7,158.75-92.79,337.3-94.97C382.84,243.59,382.78,242.25,382.7,240.91z"/>
		<path class="st4" d="M477.56,243.51c-25.65-1.76-52.33-2.71-79.73-2.71c-1.04,0-2.07,0.02-3.1,0.02c0.08,1.34,0.14,2.68,0.21,4.02
			c0.97,0,1.92-0.02,2.89-0.02c27.11,0,53.5,0.91,78.87,2.61C476.98,246.13,477.27,244.82,477.56,243.51z"/>
		<path class="st4" d="M534.99,249.03c-14.64-1.83-29.76-3.39-45.3-4.63c-0.29,1.3-0.57,2.6-0.86,3.9
			c15.49,1.21,30.55,2.72,45.13,4.51C534.31,251.55,534.65,250.29,534.99,249.03z"/>
		<path class="st4" d="M547.03,250.62c-0.33,1.25-0.68,2.5-1.02,3.75c98.37,13.34,172.37,39.54,196.62,71.17
			c1.21-0.42,2.42-0.84,3.64-1.26C721.4,291.5,646.47,264.39,547.03,250.62z"/>
		<path class="st4" d="M744.14,368.7c1.75-0.41,3.49-0.83,5.24-1.25c3.81-6.27,5.81-12.73,5.81-19.32c0-4.56-0.96-9.05-2.8-13.46
			c-1.23,0.42-2.45,0.85-3.68,1.28c1.61,4,2.47,8.06,2.47,12.18C751.18,355.18,748.75,362.06,744.14,368.7z"/>
		<path class="st4" d="M728,384.93c-50.82,38.85-179.64,66.52-330.17,66.52c-136.23,0-254.69-22.66-313.63-55.77
			c-2.12,0.04-4.23,0.14-6.35,0.2c58.6,35.29,180.01,59.59,319.98,59.59c156.3,0,289.47-30.3,337.87-72.37
			C733.13,383.71,730.57,384.32,728,384.93z"/>
		<path class="st4" d="M44.78,351.88c-1.35-0.17-2.71-0.34-4.06-0.51c1.16,11.67,8.48,22.88,21.14,33.34
			c1.7-0.1,3.39-0.25,5.09-0.34C53.87,374.2,46.18,363.27,44.78,351.88z"/>
	</g>
	<ellipse class="st1" cx="395.83" cy="378.93" rx="253.09" ry="79.22"/>
	<ellipse class="st15" cx="395.83" cy="390.53" rx="216.03" ry="67.62"/>
	<linearGradient id="SVGID_12_" gradientUnits="userSpaceOnUse" x1="213.6827" y1="379.9255" x2="577.9723" y2="379.9255">
		<stop  offset="0" style="stop-color:#20085C"/>
		<stop  offset="1" style="stop-color:#2E186A"/>
	</linearGradient>
	<ellipse class="st16" cx="395.83" cy="379.93" rx="182.14" ry="57.01"/>
	<ellipse class="st17" cx="395.83" cy="373.01" rx="160.05" ry="50.1"/>
	<ellipse class="st18" cx="394.83" cy="381.06" rx="119.25" ry="37.33"/>
	<ellipse class="st4" cx="394.83" cy="381.06" rx="96.74" ry="30.28"/>
</g>
</svg>
