<?xml version="1.0" encoding="utf-8"?>
<!-- Generator: Adobe Illustrator 24.0.0, SVG Export Plug-In . SVG Version: 6.00 Build 0)  -->
<svg version="1.1" id="Layer_1" xmlns="http://www.w3.org/2000/svg" xmlns:xlink="http://www.w3.org/1999/xlink" x="0px" y="0px"
	 viewBox="0 0 288 560" style="enable-background:new 0 0 288 560;" xml:space="preserve">
<style type="text/css">
	.st0{fill:#537A7C;}
	.st1{fill:#FFFFFF;}
	.st2{fill:url(#SVGID_1_);}
	.st3{fill:url(#SVGID_2_);}
	.st4{fill:url(#SVGID_3_);}
	.st5{fill:url(#SVGID_4_);}
	.st6{fill:url(#SVGID_5_);}
	.st7{fill:url(#SVGID_6_);}
	.st8{fill:url(#SVGID_7_);}
	.st9{fill:url(#SVGID_8_);}
	.st10{fill:url(#SVGID_9_);}
	.st11{fill:url(#SVGID_10_);}
	.st12{fill:url(#SVGID_11_);}
	.st13{fill:url(#SVGID_12_);}
	.st14{fill:url(#SVGID_13_);}
	.st15{fill:url(#SVGID_14_);}
	.st16{fill:url(#SVGID_15_);}
	.st17{fill:url(#SVGID_16_);}
	.st18{fill:url(#SVGID_17_);}
	.st19{fill:url(#SVGID_18_);}
	.st20{fill:#9D0072;}
	.st21{fill:#F4B74C;}
	.st22{fill:url(#SVGID_19_);}
</style>
<g>
	<g>
		
			<ellipse transform="matrix(0.9601 -0.2796 0.2796 0.9601 -63.7243 51.4341)" class="st0" cx="148.41" cy="249.07" rx="115.56" ry="36.75"/>
		<g>
			<path class="st1" d="M239.08,215.07c4.85,6.21,9.24,12.72,13.35,19.41c7.95-8.08,11.6-15.82,9.71-22.38
				c-5.85-20.26-62.2-21.66-125.86-3.14c-63.66,18.52-110.53,49.96-104.68,70.22c1.95,6.75,9.52,11.39,21.08,13.92
				c0.68-10.55,1.52-21.12,1.62-31.68c0.03-3.61,5.61-3.62,5.58,0c-0.1,10.87-1.04,21.78-1.76,32.67c1.13,0.17,2.3,0.32,3.5,0.45
				c-0.67-4.88-1.4-9.75-2.1-14.63c-0.51-3.53,4.87-5.05,5.38-1.49c0.8,5.54,1.63,11.07,2.39,16.6c2.15,0.14,4.36,0.24,6.66,0.28
				c-0.83-7.32-1.72-14.63-2.8-21.92c-0.52-3.53,4.85-5.05,5.38-1.49c1.16,7.79,2.1,15.6,2.99,23.42c3.16-0.05,6.45-0.18,9.83-0.4
				c-1.02-8.36-1.95-16.72-2.95-25.08c-0.43-3.58,5.16-3.54,5.58,0c0.99,8.22,1.9,16.45,2.91,24.67
				c18.7-1.62,40.17-5.65,62.57-12.17c3.96-1.15,7.85-2.35,11.67-3.6c-2.39-6.71-4.87-13.39-8.39-19.63
				c-1.78-3.15,3.05-5.97,4.82-2.83c3.71,6.58,6.26,13.64,8.78,20.71c3.79-1.3,7.5-2.64,11.12-4.02
				c-2.59-6.58-5.13-13.19-8.44-19.46c-1.68-3.19,3.14-6.02,4.82-2.83c3.44,6.53,6.06,13.43,8.76,20.29c3.11-1.24,6.14-2.51,9.1-3.8
				c-2.21-5.74-4.46-11.47-7.33-16.93c-1.68-3.19,3.14-6.03,4.82-2.83c2.96,5.64,5.28,11.57,7.55,17.51c1.74-0.8,3.45-1.6,5.13-2.41
				c-2.33-5.22-4.92-10.32-8.2-15.07c-2.06-2.98,2.78-5.78,4.82-2.83c3.36,4.86,5.99,10.09,8.36,15.43
				c13.81-7.02,25.24-14.43,33.46-21.66c-4.04-6.68-8.37-13.17-13.18-19.33C232.94,216.23,236.86,212.23,239.08,215.07z"/>
		</g>
		<linearGradient id="SVGID_1_" gradientUnits="userSpaceOnUse" x1="30.6361" y1="241.288" x2="262.162" y2="241.288">
			<stop  offset="0" style="stop-color:#64D7CC"/>
			<stop  offset="1" style="stop-color:#2E186A"/>
		</linearGradient>
		<path class="st2" d="M261.67,207.75c5.85,20.26-41.02,51.7-104.68,70.22c-63.66,18.52-120.01,17.12-125.86-3.14
			c-5.85-20.26,41.02-51.7,104.68-70.22C199.47,186.08,255.82,187.49,261.67,207.75z"/>
		<g>
			<linearGradient id="SVGID_2_" gradientUnits="userSpaceOnUse" x1="307.3138" y1="286.5006" x2="83.2485" y2="228.3923">
				<stop  offset="0" style="stop-color:#20085C"/>
				<stop  offset="0.2755" style="stop-color:#2E186A"/>
				<stop  offset="0.9847" style="stop-color:#5959D8"/>
			</linearGradient>
			<path class="st3" d="M64.2,244.19c1.8-1.08,3.54-2.2,5.29-3.27c8-12.26,33.82-26.86,66.32-36.32
				c-45.58,13.26-81.63,33.83-92.16,50.93C50.55,251.84,57.52,248.22,64.2,244.19z"/>
			<linearGradient id="SVGID_3_" gradientUnits="userSpaceOnUse" x1="297.8062" y1="323.3922" x2="73.6972" y2="265.2726">
				<stop  offset="0" style="stop-color:#20085C"/>
				<stop  offset="0.2755" style="stop-color:#2E186A"/>
				<stop  offset="0.9847" style="stop-color:#5959D8"/>
			</linearGradient>
			<path class="st4" d="M42.85,271.99c8.14-6.86,16.45-13.49,25.17-19.57c-0.33-0.58-0.61-1.17-0.79-1.8
				c-0.17-0.59-0.25-1.2-0.28-1.81c-1.55,0.95-3.09,1.88-4.64,2.72c-7.27,3.92-14.5,7.94-21.68,12.03c-0.19,1.62-0.1,3.19,0.33,4.69
				C41.34,269.58,41.98,270.83,42.85,271.99z"/>
			<linearGradient id="SVGID_4_" gradientUnits="userSpaceOnUse" x1="296.7373" y1="327.6177" x2="72.6164" y2="269.4949">
				<stop  offset="0" style="stop-color:#20085C"/>
				<stop  offset="0.2755" style="stop-color:#2E186A"/>
				<stop  offset="0.9847" style="stop-color:#5959D8"/>
			</linearGradient>
			<path class="st5" d="M69.1,253.93c-8.67,6.04-16.95,12.64-25.05,19.47c3.73,3.82,10.24,6.5,18.86,8.01
				c5.93-7.4,12.03-14.64,18.45-21.6C75.7,258.61,71.48,256.64,69.1,253.93z"/>
			<linearGradient id="SVGID_5_" gradientUnits="userSpaceOnUse" x1="296.221" y1="328.5223" x2="72.3761" y2="270.4712">
				<stop  offset="0" style="stop-color:#20085C"/>
				<stop  offset="0.2755" style="stop-color:#2E186A"/>
				<stop  offset="0.9847" style="stop-color:#5959D8"/>
			</linearGradient>
			<path class="st6" d="M65.03,281.74c0.46,0.07,0.91,0.14,1.39,0.2c4.33-5.34,8.67-10.67,13-16.01c1.48-1.83,2.97-3.73,4.47-5.66
				c-0.12-0.02-0.23-0.04-0.35-0.06C77.1,267.15,70.97,274.36,65.03,281.74z"/>
			<linearGradient id="SVGID_6_" gradientUnits="userSpaceOnUse" x1="298.2141" y1="322.3045" x2="74.0202" y2="264.1628">
				<stop  offset="0" style="stop-color:#20085C"/>
				<stop  offset="0.2755" style="stop-color:#2E186A"/>
				<stop  offset="0.9847" style="stop-color:#5959D8"/>
			</linearGradient>
			<path class="st7" d="M124.45,258.57c-13.03,2.27-24.83,3.07-34.31,2.4c-3.05,4.01-6,7.97-8.92,11.6
				c-2.7,3.35-5.42,6.69-8.13,10.03c13.91,0.92,31.39-0.41,50.63-4.02C123.83,271.9,124.05,265.23,124.45,258.57z"/>
			<linearGradient id="SVGID_7_" gradientUnits="userSpaceOnUse" x1="301.1555" y1="311.8774" x2="76.6547" y2="253.6561">
				<stop  offset="0" style="stop-color:#20085C"/>
				<stop  offset="0.2755" style="stop-color:#2E186A"/>
				<stop  offset="0.9847" style="stop-color:#5959D8"/>
			</linearGradient>
			<path class="st8" d="M134.02,256.65c-2.6,0.57-5.17,1.11-7.69,1.57c-0.41,6.66-0.64,13.33-0.76,20.01
				c3.35-0.65,6.76-1.39,10.2-2.17C135.08,269.59,134.46,263.13,134.02,256.65z"/>
			<linearGradient id="SVGID_8_" gradientUnits="userSpaceOnUse" x1="302.657" y1="305.5676" x2="78.3074" y2="247.3856">
				<stop  offset="0" style="stop-color:#20085C"/>
				<stop  offset="0.2755" style="stop-color:#2E186A"/>
				<stop  offset="0.9847" style="stop-color:#5959D8"/>
			</linearGradient>
			<path class="st9" d="M149.04,252.85c-4.47,1.29-8.87,2.4-13.19,3.39c0.43,6.48,1.04,12.94,1.74,19.39
				c5.71-1.34,11.52-2.84,17.41-4.55c0.38-0.11,0.75-0.23,1.13-0.34C153.89,264.73,151.54,258.76,149.04,252.85z"/>
			<linearGradient id="SVGID_9_" gradientUnits="userSpaceOnUse" x1="306.1349" y1="291.867" x2="81.8678" y2="233.7064">
				<stop  offset="0" style="stop-color:#20085C"/>
				<stop  offset="0.2755" style="stop-color:#2E186A"/>
				<stop  offset="0.9847" style="stop-color:#5959D8"/>
			</linearGradient>
			<path class="st10" d="M187.31,259.41c-3.56-4.41-7.26-10.43-11.35-16.08c-6.66,2.84-13.88,5.51-21.53,7.9
				c2.49,5.91,4.82,11.88,7.04,17.89c9.19-2.87,17.92-6.03,26.1-9.38C187.49,259.63,187.4,259.53,187.31,259.41z"/>
			<linearGradient id="SVGID_10_" gradientUnits="userSpaceOnUse" x1="320.5238" y1="235.9268" x2="96.3474" y2="177.7896">
				<stop  offset="0" style="stop-color:#20085C"/>
				<stop  offset="0.2755" style="stop-color:#2E186A"/>
				<stop  offset="0.9847" style="stop-color:#5959D8"/>
			</linearGradient>
			<path class="st11" d="M210.19,192.84c-19.39-0.18-44.13,3.33-70.49,10.67c24.31-6.65,46.62-8.78,61.28-6.57
				C203.97,195.39,207.05,194.05,210.19,192.84z"/>
			<linearGradient id="SVGID_11_" gradientUnits="userSpaceOnUse" x1="323.66" y1="223.8849" x2="99.4671" y2="165.7435">
				<stop  offset="0" style="stop-color:#20085C"/>
				<stop  offset="0.2755" style="stop-color:#2E186A"/>
				<stop  offset="0.9847" style="stop-color:#5959D8"/>
			</linearGradient>
			<path class="st12" d="M204.09,197.5c2.71,0.57,5.13,1.3,7.13,2.22c0.05-0.01,0.09-0.02,0.14-0.03
				c6.92-1.61,13.84-3.17,20.81-4.51c-4.85-1.18-10.56-1.91-16.94-2.2C211.43,194.28,207.71,195.76,204.09,197.5z"/>
			<linearGradient id="SVGID_12_" gradientUnits="userSpaceOnUse" x1="322.2249" y1="229.5572" x2="97.9778" y2="171.4017">
				<stop  offset="0" style="stop-color:#20085C"/>
				<stop  offset="0.2755" style="stop-color:#2E186A"/>
				<stop  offset="0.9847" style="stop-color:#5959D8"/>
			</linearGradient>
			<path class="st13" d="M246.34,201.91c-9.57,0.92-19.13,2-28.65,3.33c0.23,0.46,0.44,0.93,0.58,1.42
				c0.36,1.25,0.41,2.58,0.17,3.95c10.62-0.1,21.23-0.14,31.85-0.15c-0.02-1.03-0.15-2.03-0.43-3.01
				C249.26,205.38,248.05,203.54,246.34,201.91z"/>
			<linearGradient id="SVGID_13_" gradientUnits="userSpaceOnUse" x1="323.3636" y1="225.071" x2="99.1576" y2="166.9262">
				<stop  offset="0" style="stop-color:#20085C"/>
				<stop  offset="0.2755" style="stop-color:#2E186A"/>
				<stop  offset="0.9847" style="stop-color:#5959D8"/>
			</linearGradient>
			<path class="st14" d="M216.55,203.53c9.23-1.31,18.49-2.37,27.76-3.28c-2.17-1.54-4.86-2.86-8.08-3.93
				c-7.56,1.39-15.05,3.01-22.54,4.74C214.84,201.8,215.79,202.62,216.55,203.53z"/>
			<linearGradient id="SVGID_14_" gradientUnits="userSpaceOnUse" x1="318.6034" y1="243.4386" x2="94.4359" y2="185.3038">
				<stop  offset="0" style="stop-color:#20085C"/>
				<stop  offset="0.2755" style="stop-color:#2E186A"/>
				<stop  offset="0.9847" style="stop-color:#5959D8"/>
			</linearGradient>
			<path class="st15" d="M216.07,216.24c-1.52,2.35-3.68,4.79-6.44,7.26c6.09,2.04,12.13,4.05,18.06,5.66
				c3.07,0.84,6.15,1.64,9.23,2.46c6.2-5.38,10.44-10.67,12.31-15.57C238.17,216.08,227.12,216.13,216.07,216.24z"/>
			<linearGradient id="SVGID_15_" gradientUnits="userSpaceOnUse" x1="312.9036" y1="265.5761" x2="88.6769" y2="207.4259">
				<stop  offset="0" style="stop-color:#20085C"/>
				<stop  offset="0.2755" style="stop-color:#2E186A"/>
				<stop  offset="0.9847" style="stop-color:#5959D8"/>
			</linearGradient>
			<path class="st16" d="M211.68,248.43c7.56-4.07,14.23-8.26,19.8-12.44c-1.76-0.48-3.52-0.93-5.28-1.42
				c-7.49-2.06-14.97-4.16-22.41-6.4c-2.53,1.83-5.35,3.66-8.41,5.46C201.17,238.12,206.51,243.17,211.68,248.43z"/>
			<linearGradient id="SVGID_16_" gradientUnits="userSpaceOnUse" x1="310.6201" y1="274.5695" x2="86.3223" y2="216.4009">
				<stop  offset="0" style="stop-color:#20085C"/>
				<stop  offset="0.2755" style="stop-color:#2E186A"/>
				<stop  offset="0.9847" style="stop-color:#5959D8"/>
			</linearGradient>
			<path class="st17" d="M193.62,234.65c-2.61,1.49-5.39,2.96-8.32,4.4c2.39,2.98,4.64,6.05,6.97,8.8c2.04,2.4,4.08,4.8,6.13,7.19
				c4.05-1.86,7.9-3.78,11.57-5.71C204.8,244.1,199.44,239.08,193.62,234.65z"/>
			<linearGradient id="SVGID_17_" gradientUnits="userSpaceOnUse" x1="309.259" y1="280.0251" x2="84.8795" y2="221.8353">
				<stop  offset="0" style="stop-color:#20085C"/>
				<stop  offset="0.2755" style="stop-color:#2E186A"/>
				<stop  offset="0.9847" style="stop-color:#5959D8"/>
			</linearGradient>
			<path class="st18" d="M192.08,250.48c-2.77-3.25-5.46-7.05-8.4-10.64c-1.01,0.49-2.04,0.97-3.09,1.45
				c2.19,3.12,4.32,6.24,6.56,9.04c1.92,2.4,3.86,4.78,5.82,7.14c1.25-0.54,2.46-1.1,3.68-1.65
				C195.12,254.05,193.6,252.27,192.08,250.48z"/>
		</g>
		<linearGradient id="SVGID_18_" gradientUnits="userSpaceOnUse" x1="76.2286" y1="225.8493" x2="198.5134" y2="225.8493">
			<stop  offset="0" style="stop-color:#20085C"/>
			<stop  offset="1" style="stop-color:#2E186A"/>
		</linearGradient>
		<path class="st19" d="M198.25,208.13c3.09,10.7-21.66,27.3-55.29,37.09c-33.62,9.78-63.39,9.04-66.48-1.66s21.66-27.3,55.29-37.09
			C165.4,196.69,195.16,197.43,198.25,208.13z"/>
		
			<ellipse transform="matrix(0.9601 -0.2796 0.2796 0.9601 -56.1749 46.8623)" class="st20" cx="136.17" cy="220.32" rx="52.42" ry="16.67"/>
		<path class="st21" d="M182.67,203.48c-2.17,0.63-4.33,1.26-6.5,1.9c0,0.01,0.01,0.03,0.02,0.04c2.07,7.19-14.55,18.34-37.14,24.91
			c-19.41,5.65-36.87,6.06-42.72,1.5c-2.11,0.74-4.22,1.48-6.34,2.23c6.66,5.42,27.08,5.1,49.66-1.67
			c25.83-7.74,44.38-20.94,43.03-28.87C182.68,203.52,182.68,203.5,182.67,203.48z"/>
		<linearGradient id="SVGID_19_" gradientUnits="userSpaceOnUse" x1="98.2519" y1="215.0887" x2="169.8936" y2="215.0887">
			<stop  offset="0" style="stop-color:#20085C"/>
			<stop  offset="1" style="stop-color:#2E186A"/>
		</linearGradient>
		<path class="st22" d="M98.72,228.35c7.91-5.21,20.98-10.89,36.23-15.32c13.31-3.87,25.71-6.05,34.94-6.45
			c-2.24-6.03-19.49-6.38-38.97-0.71c-19.78,5.75-34.33,15.52-32.52,21.81C98.47,227.92,98.61,228.13,98.72,228.35z"/>
	</g>
</g>
</svg>
