<?xml version="1.0" encoding="utf-8"?>
<!-- Generator: Adobe Illustrator 24.0.0, SVG Export Plug-In . SVG Version: 6.00 Build 0)  -->
<svg version="1.1" id="Layer_1" xmlns="http://www.w3.org/2000/svg" xmlns:xlink="http://www.w3.org/1999/xlink" x="0px" y="0px"
	 viewBox="0 0 288 560" style="enable-background:new 0 0 288 560;" xml:space="preserve">
<style type="text/css">
	.st0{fill:url(#SVGID_1_);}
	.st1{fill:#F46918;}
	.st2{fill:#8E4413;}
	.st3{fill:#85D1DA;}
	.st4{fill:url(#SVGID_2_);}
	.st5{fill:#FFFFFF;}
	.st6{fill:url(#SVGID_3_);}
</style>
<g>
	<g>
		<g>
			<linearGradient id="SVGID_1_" gradientUnits="userSpaceOnUse" x1="45.3794" y1="136.0808" x2="187.0776" y2="136.0808">
				<stop  offset="0" style="stop-color:#20085C"/>
				<stop  offset="1" style="stop-color:#2E186A"/>
			</linearGradient>
			<path class="st0" d="M186,172.54c-6.75,13.02-43.46,7.25-82-12.89c-38.54-20.13-64.3-47.01-57.56-60.03
				c6.75-13.02,43.46-7.25,82,12.89C166.98,132.64,192.75,159.52,186,172.54z"/>
			
				<ellipse transform="matrix(0.4634 -0.8861 0.8861 0.4634 -53.9195 174.1797)" class="st1" cx="116.86" cy="131.61" rx="26.55" ry="83.58"/>
			
				<ellipse transform="matrix(0.4633 -0.8862 0.8862 0.4633 -45.5337 172.7172)" class="st2" cx="119.83" cy="123.95" rx="15.35" ry="57.31"/>
			<g>
				<path class="st3" d="M61.78,105.77c-1.21-3.1-1.34-5.83-0.2-8.02c0.02-0.03,0.04-0.07,0.06-0.1c-3.89-0.87-7.79-1.67-11.71-2.43
					c-0.09,0.15-0.2,0.29-0.28,0.44c-1.47,2.83-1.13,6.44,0.71,10.55C54.17,105.97,57.97,105.82,61.78,105.77z"/>
				<path class="st3" d="M102.93,142.35c-2.98-1.7-5.88-3.43-8.62-5.19c-1.55,1.95-3.08,3.92-4.57,5.92
					c3.27,2.06,6.73,4.07,10.27,6.05C101,146.88,101.97,144.61,102.93,142.35z"/>
				<path class="st3" d="M123.12,152.42c-4.43-1.9-8.94-4.02-13.51-6.4c-0.96,2.25-1.95,4.5-2.95,6.73
					c5.03,2.61,10.02,4.97,14.91,7.09C122.08,157.37,122.59,154.89,123.12,152.42z"/>
				<path class="st3" d="M142.21,159.28c-3.81-1.08-7.8-2.41-11.94-3.97c-0.53,2.49-1.05,4.98-1.57,7.47
					c5.15,2.01,10.13,3.71,14.87,5.1C143.09,165.01,142.64,162.14,142.21,159.28z"/>
				<path class="st3" d="M131.29,111.02c30.03,16.31,49.98,36.86,44.92,46.62c-2.79,5.38-12.64,6.37-26.04,3.61
					c0.46,2.9,0.93,5.81,1.42,8.71c17.04,3.89,29.71,2.96,33.16-3.72C190.75,154.69,166.97,130.29,131.29,111.02z"/>
				<path class="st3" d="M83.37,138.89c1.5-2.02,3.04-4.02,4.6-6c-9.42-6.65-16.91-13.42-21.61-19.49
					c-3.82-0.04-7.63,0.05-11.44,0.22C60.85,121.46,70.77,130.31,83.37,138.89z"/>
				<path class="st3" d="M61.53,89.79c3.99,0.87,7.97,1.8,11.91,2.87c12.11-0.44,31.5,5.02,51.95,15.28
					C99.88,95.05,75.69,88.49,61.53,89.79z"/>
			</g>
			<linearGradient id="SVGID_2_" gradientUnits="userSpaceOnUse" x1="82.9702" y1="120.4904" x2="162.2902" y2="120.4904">
				<stop  offset="0" style="stop-color:#20085C"/>
				<stop  offset="1" style="stop-color:#2E186A"/>
			</linearGradient>
			<path class="st4" d="M161.76,140.93c-3.56,6.88-23.97,3.3-45.58-7.99c-21.61-11.29-36.24-26.02-32.67-32.89
				c3.56-6.88,23.97-3.3,45.58,7.99C150.69,119.33,165.32,134.06,161.76,140.93z"/>
			<g>
				<path class="st5" d="M168.89,170.03c-14.95,0-38.62-7.52-61.77-19.62c-17.45-9.12-32.79-19.77-43.2-30.01
					c-10.75-10.58-15.01-19.62-11.98-25.45c2.05-3.97,7.29-6.06,15.14-6.06c14.95,0,38.62,7.52,61.77,19.61
					c17.45,9.12,32.79,19.77,43.2,30.01c10.75,10.58,15.01,19.62,11.98,25.45C181.97,167.94,176.73,170.03,168.89,170.03z
					 M68.49,89.41c-4.81,0-12.26,2.11-14.29,6.02c-2.45,4.73,1.78,12.99,11.62,22.67c10.33,10.16,25.61,20.77,43.01,29.86
					c23.04,12.04,46.49,19.52,61.2,19.52c4.82,0,10.98-0.82,13.01-4.73c2.45-4.73-1.78-12.99-11.62-22.67
					c-10.33-10.16-25.61-20.77-43.01-29.86C105.36,98.17,83.19,89.41,68.49,89.41z"/>
			</g>
			
				<ellipse transform="matrix(0.4634 -0.8861 0.8861 0.4634 -38.4574 173.1546)" class="st3" cx="123.75" cy="118.33" rx="11.59" ry="36.49"/>
		</g>
		<g>
			<linearGradient id="SVGID_3_" gradientUnits="userSpaceOnUse" x1="82.9702" y1="120.4904" x2="162.2902" y2="120.4904">
				<stop  offset="0" style="stop-color:#20085C"/>
				<stop  offset="1" style="stop-color:#2E186A"/>
			</linearGradient>
			<path class="st6" d="M161.76,140.93c-3.56,6.88-23.97,3.3-45.58-7.99c-21.61-11.29-36.24-26.02-32.67-32.89
				c3.56-6.88,23.97-3.3,45.58,7.99C150.69,119.33,165.32,134.06,161.76,140.93z"/>
			
				<ellipse transform="matrix(0.4634 -0.8861 0.8861 0.4634 -38.4574 173.1546)" class="st3" cx="123.75" cy="118.33" rx="11.59" ry="36.49"/>
			<g>
				<g>
					<path class="st5" d="M101.74,104.81c-0.64-1.23-0.82-2.28-0.4-3.08c0.74-1.43,3.22-1.82,6.78-1.32
						c0.2-0.14,0.41-0.27,0.61-0.41c-8.89-2.26-15.57-1.95-17.32,1.44c-1.13,2.19-0.03,5.33,2.76,8.91
						C96.67,108.46,99.2,106.61,101.74,104.81z"/>
					<path class="st5" d="M113.32,115.53c-2.49-1.67-4.7-3.34-6.52-4.93c-2.45,1.73-4.89,3.49-7.31,5.3
						c2.38,2.12,5.19,4.29,8.34,6.43C109.62,120.03,111.45,117.77,113.32,115.53z"/>
					<path class="st5" d="M131.52,109.36c12.12,6.75,20.28,14.5,18.56,17.83c-1.84,3.55-14.24,0.73-27.7-6.3
						c-0.84-0.44-1.66-0.88-2.46-1.33c-1.9,2.24-3.75,4.52-5.57,6.82c1.32,0.76,2.67,1.51,4.07,2.24
						c17.86,9.33,34.73,12.29,37.68,6.61C158.9,129.81,148.02,118.49,131.52,109.36z"/>
				</g>
				<path class="st5" d="M131.5,109.35c-0.8-0.44-1.59-0.88-2.41-1.31c-0.68-0.36-1.36-0.69-2.04-1.02
					c0.66,0.33,1.32,0.66,1.99,1.01C129.88,108.46,130.7,108.9,131.5,109.35z"/>
			</g>
		</g>
	</g>
</g>
</svg>
